<svg width="80" height="66" viewBox="0 0 80 66" fill="none" xmlns="http://www.w3.org/2000/svg">
<rect x="5" y="61" width="70" height="5" fill="black"/>
<rect x="14" y="42" width="52" height="5" fill="black"/>
<rect x="5" y="47" width="70" height="14" fill="#5D2E1C"/>
<rect x="5" y="47" width="70" height="14" fill="#5D2E1C"/>
<rect x="5" y="47" width="70" height="14" fill="#5D2E1C"/>
<rect x="33" y="19" width="10" height="5" fill="black"/>
<rect y="47" width="5" height="14" fill="black"/>
<rect x="9" y="33" width="5" height="10" fill="black"/>
<rect x="66" y="33" width="5" height="10" fill="black"/>
<rect x="57" y="19" width="5" height="10" fill="black"/>
<rect x="18" y="19" width="5" height="10" fill="black"/>
<rect x="28" y="5" width="5" height="14" fill="black"/>
<rect x="4" y="42" width="5" height="5" fill="black"/>
<rect x="9" y="43" width="5" height="4" fill="#5D2E1C"/>
<rect x="14" y="28" width="5" height="5" fill="black"/>
<rect x="23" y="14" width="5" height="5" fill="black"/>
<rect x="33" width="5" height="5" fill="black"/>
<rect x="38" y="5" width="5" height="5" fill="black"/>
<rect x="43" y="10" width="5" height="5" fill="black"/>
<rect x="61" y="28" width="5" height="5" fill="black"/>
<rect x="71" y="42" width="5" height="5" fill="black"/>
<rect x="47" y="14" width="10" height="5" fill="black"/>
<rect x="75" y="47" width="5" height="14" fill="black"/>
<rect x="23" y="29" width="34" height="5" fill="black"/>
<rect x="66" y="43" width="5" height="4" fill="#5D2E1C"/>
<rect x="14" y="33" width="52" height="9" fill="#5D2E1C"/>
<rect x="14" y="33" width="52" height="9" fill="#5D2E1C"/>
<rect x="14" y="33" width="52" height="9" fill="#5D2E1C"/>
<rect x="23" y="19" width="10" height="10" fill="#5D2E1C"/>
<rect x="43" y="19" width="14" height="10" fill="#5D2E1C"/>
<rect x="33" y="24" width="10" height="5" fill="#5D2E1C"/>
<rect x="19" y="29" width="4" height="4" fill="#5D2E1C"/>
<rect x="57" y="29" width="4" height="4" fill="#5D2E1C"/>
<rect x="33" y="5" width="5" height="14" fill="#5D2E1C"/>
<rect x="38" y="10" width="5" height="9" fill="#5D2E1C"/>
<rect x="43" y="15" width="4" height="4" fill="#5D2E1C"/>
</svg>
